<?xml version="1.0" encoding="UTF-8" standalone="no"?>
<!-- Generator: Adobe Illustrator 18.0.0, SVG Export Plug-In . SVG Version: 6.00 Build 0)  -->

<svg
   xmlns:dc="http://purl.org/dc/elements/1.1/"
   xmlns:cc="http://creativecommons.org/ns#"
   xmlns:rdf="http://www.w3.org/1999/02/22-rdf-syntax-ns#"
   xmlns:svg="http://www.w3.org/2000/svg"
   xmlns="http://www.w3.org/2000/svg"
   xmlns:sodipodi="http://sodipodi.sourceforge.net/DTD/sodipodi-0.dtd"
   xmlns:inkscape="http://www.inkscape.org/namespaces/inkscape"
   version="1.1"
   id="Calque_1"
   x="0px"
   y="0px"
   viewBox="0 0 450 152"
   enable-background="new 0 0 450 152"
   xml:space="preserve"
   inkscape:version="0.91 r13725"
   sodipodi:docname="logo_solAR.svg"><metadata
     id="metadata93"><rdf:RDF><cc:Work
         rdf:about=""><dc:format>image/svg+xml</dc:format><dc:type
           rdf:resource="http://purl.org/dc/dcmitype/StillImage" /><dc:title></dc:title></cc:Work></rdf:RDF></metadata><defs
     id="defs91" /><sodipodi:namedview
     pagecolor="#ffffff"
     bordercolor="#666666"
     borderopacity="1"
     objecttolerance="10"
     gridtolerance="10"
     guidetolerance="10"
     inkscape:pageopacity="0"
     inkscape:pageshadow="2"
     inkscape:window-width="1920"
     inkscape:window-height="1138"
     id="namedview89"
     showgrid="false"
     inkscape:zoom="0.79111111"
     inkscape:cx="-178.86236"
     inkscape:cy="76"
     inkscape:window-x="-8"
     inkscape:window-y="-8"
     inkscape:window-maximized="1"
     inkscape:current-layer="Calque_1" /><g
     id="g3"><path
       fill="none"
       d="M349.5,31.9h-12.3v18.7h12.3c5.7,0,10-2.8,10-9.4C359.5,34.7,355.2,31.9,349.5,31.9z"
       id="path5" /><polygon
       fill="none"
       points="267,64.9 284.8,64.9 276.1,35.1  "
       id="polygon7" /><path
       fill="none"
       d="M171.3,82.6c6-1.9,10.3-7.9,10.3-16.6c0-10.6-6.3-17.2-14.5-17.2s-14.4,6.6-14.4,17.2c0,8.4,3.9,14.2,9.5,16.3   l4.3-8L171.3,82.6z"
       id="path9" /><polygon
       fill="#FFFFFF"
       points="10.7,67.7 63.8,94.7 63.8,87 19.9,64.9 63.8,42.8 63.8,35.1 10.7,61.9  "
       id="polygon11" /><path
       fill="#FFFFFF"
       d="M109.9,51.1l-8.2-2.8c-4.7-1.6-9-3.9-9-9c0-4.3,3.5-8,11.3-8c7.5,0,13.4,2.4,19.2,4.8V21   c-6.3-2.5-12.9-4.3-20.7-4.3c-15.8,0-26.2,10-26.2,23.2c0,12.4,7.2,18.9,18.1,22.6l7.1,2.4c5.9,2,8.9,4.3,8.9,9   c0,5.6-4.7,8.7-11.4,8.7c-6.2,0-14.4-2.4-23-5.8v15.1c8.9,3.9,16.7,5.2,23.7,5.2c16.4,0,27.1-10,27.1-24.7   C126.6,60.8,120.4,54.7,109.9,51.1z"
       id="path13" /><path
       fill="#FFFFFF"
       d="M167,35.1c-16.4,0-30.6,12-30.6,31c0,14.3,8,24.6,19,28.9l6.7-12.5c-5.7-2.1-9.5-8-9.5-16.3   c0-10.6,6.2-17.2,14.4-17.2s14.5,6.6,14.5,17.2c0,8.7-4.2,14.7-10.3,16.6l7.4,12.3c11-4.2,19-14.5,19-28.8   C197.8,47,183.5,35.1,167,35.1z"
       id="path15" /><path
       fill="#FFFFFF"
       d="M225.9,77.5V13.6h-15.7v65.3c0,9.6,3.5,18.2,16.3,18.2c3.3,0,8.3-0.6,11.1-1.4V83c-2.2,0.3-4.4,0.4-6.2,0.4   C227.8,83.4,225.9,81.5,225.9,77.5z"
       id="path17" /><path
       fill="#FFFFFF"
       d="M267.2,18l-25.2,77.8h15.6l5.2-17.3h25.9l5.1,17.3h16.4L285.8,18H267.2z M267,64.9l9.1-29.9l8.7,29.9H267z"
       id="path19" /><path
       fill="#FFFFFF"
       d="M375,41.3C375,27,364.9,18,350.2,18H321v77.8h16.2V64.6h7.1l15.8,31.3h17.6L360,62.7   C368.4,59.4,375,51.8,375,41.3z M349.5,50.6h-12.3V31.9h12.3c5.7,0,10,2.8,10,9.4C359.5,47.9,355.2,50.6,349.5,50.6z"
       id="path21" /><polygon
       fill="#FFFFFF"
       points="389.1,35.1 389.1,42.8 433,64.9 389.1,87 389.1,94.7 442.2,67.7 442.2,61.9  "
       id="polygon23" /></g></svg>