<?xml version="1.0" encoding="UTF-8" standalone="no"?>
<svg
   xmlns:dc="http://purl.org/dc/elements/1.1/"
   xmlns:cc="http://creativecommons.org/ns#"
   xmlns:rdf="http://www.w3.org/1999/02/22-rdf-syntax-ns#"
   xmlns:svg="http://www.w3.org/2000/svg"
   xmlns="http://www.w3.org/2000/svg"
   xmlns:sodipodi="http://sodipodi.sourceforge.net/DTD/sodipodi-0.dtd"
   xmlns:inkscape="http://www.inkscape.org/namespaces/inkscape"
   aria-hidden="true"
   focusable="false"
   data-prefix="fas"
   data-icon="project-diagram"
   class="svg-inline--fa fa-project-diagram fa-w-20"
   role="img"
   viewBox="0 0 512 512"
   version="1.1"
   id="svg4"
   sodipodi:docname="project-diagram-solid.svg"
   width="512"
   height="512"
   inkscape:version="0.92.2 5c3e80d, 2017-08-06">
  <metadata
     id="metadata10">
    <rdf:RDF>
      <cc:Work
         rdf:about="">
        <dc:format>image/svg+xml</dc:format>
        <dc:type
           rdf:resource="http://purl.org/dc/dcmitype/StillImage" />
        <dc:title></dc:title>
      </cc:Work>
    </rdf:RDF>
  </metadata>
  <defs
     id="defs8" />
  <sodipodi:namedview
     pagecolor="#ffffff"
     bordercolor="#666666"
     borderopacity="1"
     objecttolerance="10"
     gridtolerance="10"
     guidetolerance="10"
     inkscape:pageopacity="0"
     inkscape:pageshadow="2"
     inkscape:window-width="1545"
     inkscape:window-height="1080"
     id="namedview6"
     showgrid="false"
     inkscape:zoom="0.4609375"
     inkscape:cx="327.59322"
     inkscape:cy="256"
     inkscape:window-x="60"
     inkscape:window-y="0"
     inkscape:window-maximized="0"
     inkscape:current-layer="svg4" />
  <path
     d="m 309.36949,315.11865 h -102.4 c -14.136,0 -25.6,12.26551 -25.6,27.38983 V 452.0678 c 0,15.12432 11.464,27.38983 25.6,27.38983 h 102.4 c 14.136,0 25.6,-12.26551 25.6,-27.38983 V 342.50848 c 0,-15.12432 -11.464,-27.38983 -25.6,-27.38983 z m -153.6,-246.508483 c 0,-15.12432 -11.464,-27.389828 -25.6,-27.389828 H 27.769492 c -14.136,0 -25.6000005,12.265508 -25.6000005,27.389828 V 178.16949 c 0,15.12433 11.4640005,27.38983 25.6000005,27.38983 h 76.575998 l 58.528,109.59356 c 8.88,-16.31406 25.216,-27.42406 44.096,-27.42406 h 0.224 l -51.424,-96.28382 v -40.66534 h 179.2 V 95.999997 h -179.2 z m 332.8,-27.389828 h -102.4 c -14.136,0 -25.6,12.265508 -25.6,27.389828 V 178.16949 c 0,15.12433 11.464,27.38983 25.6,27.38983 h 102.4 c 14.136,0 25.6,-12.2655 25.6,-27.38983 V 68.610167 c 0,-15.12432 -11.464,-27.389828 -25.6,-27.389828 z"
     id="path2"
     style="fill:#f9f9f9;stroke-width:0.82749367"
     inkscape:connector-curvature="0" />
</svg>
