<svg id="svg" version="1.1" xmlns="http://www.w3.org/2000/svg" xmlns:xlink="http://www.w3.org/1999/xlink" width="400" height="400" viewBox="0, 0, 400,400"><g id="svgg"><path id="path0" d="M24.000 38.000 L 24.000 52.000 200.000 52.000 L 376.000 52.000 376.000 38.000 L 376.000 24.000 200.000 24.000 L 24.000 24.000 24.000 38.000 M24.000 103.199 L 24.000 117.600 164.367 117.600 C 241.569 117.600,304.974 117.508,305.267 117.396 C 305.699 117.230,305.783 114.528,305.710 103.096 L 305.621 89.000 164.810 88.899 L 24.000 88.799 24.000 103.199 M24.000 167.600 L 24.000 181.600 200.000 181.600 L 376.000 181.600 376.000 167.600 L 376.000 153.600 200.000 153.600 L 24.000 153.600 24.000 167.600 M24.000 232.399 L 24.000 246.400 158.605 246.400 L 293.210 246.400 293.105 232.500 L 293.000 218.600 158.500 218.499 L 24.000 218.399 24.000 232.399 M24.000 296.800 L 24.000 311.200 109.400 311.200 L 194.800 311.200 194.800 296.800 L 194.800 282.400 109.400 282.400 L 24.000 282.400 24.000 296.800 M24.000 361.999 L 24.000 376.000 158.605 376.000 L 293.210 376.000 293.105 362.100 L 293.000 348.200 158.500 348.099 L 24.000 347.999 24.000 361.999 " stroke="none" fill="#fcfcfc" fill-rule="evenodd"></path><path id="path1" d="" stroke="none" fill="#100fcfc" fill-rule="evenodd"></path><path id="path2" d="" stroke="none" fill="#100fcfc" fill-rule="evenodd"></path><path id="path3" d="" stroke="none" fill="#100fcfc" fill-rule="evenodd"></path><path id="path4" d="" stroke="none" fill="#100fcfc" fill-rule="evenodd"></path></g></svg>