<?xml version="1.0" encoding="UTF-8" standalone="no"?>
<svg
   xmlns:osb="http://www.openswatchbook.org/uri/2009/osb"
   xmlns:dc="http://purl.org/dc/elements/1.1/"
   xmlns:cc="http://creativecommons.org/ns#"
   xmlns:rdf="http://www.w3.org/1999/02/22-rdf-syntax-ns#"
   xmlns:svg="http://www.w3.org/2000/svg"
   xmlns="http://www.w3.org/2000/svg"
   xmlns:sodipodi="http://sodipodi.sourceforge.net/DTD/sodipodi-0.dtd"
   xmlns:inkscape="http://www.inkscape.org/namespaces/inkscape"
   aria-hidden="true"
   focusable="false"
   data-prefix="fas"
   data-icon="project-diagram"
   class="svg-inline--fa fa-project-diagram fa-w-20"
   role="img"
   viewBox="0 0 512 512"
   version="1.1"
   id="svg4"
   sodipodi:docname="install.svg"
   width="512"
   height="512"
   inkscape:version="1.0beta2 (2b71d25, 2019-12-03)">
  <metadata
     id="metadata10">
    <rdf:RDF>
      <cc:Work
         rdf:about="">
        <dc:format>image/svg+xml</dc:format>
        <dc:type
           rdf:resource="http://purl.org/dc/dcmitype/StillImage" />
        <dc:title />
      </cc:Work>
    </rdf:RDF>
  </metadata>
  <defs
     id="defs8">
    <linearGradient
       osb:paint="solid"
       id="linearGradient9489">
      <stop
         id="stop9487"
         offset="0"
         style="stop-color:#000000;stop-opacity:1;" />
    </linearGradient>
  </defs>
  <sodipodi:namedview
     pagecolor="#ffffff"
     bordercolor="#666666"
     borderopacity="1"
     objecttolerance="10"
     gridtolerance="10"
     guidetolerance="10"
     inkscape:pageopacity="0"
     inkscape:pageshadow="2"
     inkscape:window-width="885"
     inkscape:window-height="622"
     id="namedview6"
     showgrid="false"
     inkscape:zoom="0.4609375"
     inkscape:cx="327.59322"
     inkscape:cy="256"
     inkscape:window-x="477"
     inkscape:window-y="143"
     inkscape:window-maximized="0"
     inkscape:current-layer="svg4"
     inkscape:document-rotation="0" />
  <path
     style="stroke-width:0.809779;fill:#f9f9f9"
     inkscape:connector-curvature="0"
     d="m 408.08126,201.74329 -6.44748,11.92604 c -2.35887,4.42013 -7.39095,6.2549 -11.87274,4.50352 -9.27799,-3.66954 -17.76977,-8.92367 -25.23939,-15.51219 -3.61685,-3.16915 -4.56031,-8.75688 -2.20157,-13.09362 l 6.44749,-11.92604 c -5.42526,-6.67189 -9.67118,-14.42798 -12.50175,-22.85128 h -12.97348 c -4.71767,0 -8.80633,-3.58616 -9.59261,-8.59008 -1.57255,-10.00788 -1.65115,-20.51612 0,-30.94098 0.78628,-5.00394 4.87494,-8.67349 9.59261,-8.67349 h 12.97348 c 2.83057,-8.423284 7.07649,-16.179373 12.50175,-22.851283 l -6.44749,-11.926043 c -2.35874,-4.336737 -1.49387,-9.92446 2.20157,-13.093618 7.46962,-6.58851 16.04,-11.842639 25.23939,-15.512188 4.48179,-1.751376 9.51387,0.08339 11.87274,4.503539 l 6.44748,11.926038 c 8.25587,-1.58458 16.66896,-1.58458 24.92482,0 l 6.44739,-11.926038 c 2.35887,-4.420141 7.39105,-6.254915 11.87275,-4.503539 9.27809,3.669549 17.76982,8.923678 25.23944,15.512188 3.61677,3.169158 4.56035,8.756881 2.20156,13.093618 l -6.44748,11.926043 c 5.42526,6.67191 9.67118,14.427999 12.50179,22.851283 h 12.97352 c 4.71765,0 8.80617,3.58615 9.59252,8.59009 1.57252,10.00787 1.65117,20.51611 0,30.94097 -0.78635,5.00395 -4.87487,8.67349 -9.59252,8.67349 h -12.97352 c -2.83061,8.4233 -7.07653,16.17939 -12.50179,22.85128 l 6.44748,11.92604 c 2.35879,4.33674 1.49396,9.92447 -2.20156,13.09362 -7.46962,6.58852 -16.04,11.84265 -25.23944,15.51219 -4.4817,1.75138 -9.51388,-0.0834 -11.87275,-4.50352 l -6.44739,-11.92604 c -8.17721,1.58457 -16.66895,1.58457 -24.92482,0 z m -8.25586,-49.03854 c 30.27142,24.68607 64.78886,-11.92603 41.51521,-44.0346 -30.27152,-24.769469 -64.78895,11.92603 -41.51521,44.0346 z m -90.65735,128.35085 26.49738,14.01101 c 7.94136,4.83714 11.40101,15.0952 8.25591,24.26908 -6.99781,20.18251 -20.75763,38.69706 -33.49526,54.87646 -5.81842,7.42249 -15.88272,9.25726 -23.82408,4.42013 l -22.88056,-14.01101 c -12.58038,11.42564 -27.20505,20.51611 -43.16639,26.43745 v 28.02201 c 0,9.67426 -6.52608,18.01415 -15.48959,19.68213 -19.34232,3.50275 -39.62817,3.66955 -59.67814,0 -9.04214,-1.66798 -15.72547,-9.92446 -15.72547,-19.68213 V 391.05872 C 113.7005,385.05399 99.07581,376.04691 86.495445,364.62127 l -22.880552,13.92761 c -7.86274,4.83713 -18.005662,3.00236 -23.824089,-4.42014 C 27.053187,357.94936 13.607908,339.43481 6.610072,319.33569 3.464985,310.24521 6.924585,299.98715 14.865943,295.06661 L 41.048848,281.0556 c -3.06647,-17.43036 -3.06647,-35.36113 0,-52.87488 l -26.182905,-14.0944 c -7.941358,-4.83714 -11.479584,-15.0952 -8.255871,-24.18567 6.997836,-20.18254 20.443115,-38.69709 33.180732,-54.87646 5.818427,-7.42251 15.882723,-9.25728 23.824089,-4.42014 l 22.880552,14.01101 C 99.07581,133.18941 113.7005,124.09893 129.66185,118.17762 V 90.072198 c 0,-9.590869 6.44744,-17.930755 15.41095,-19.59873 19.34232,-3.502755 39.70682,-3.669549 59.75678,-0.08335 9.04214,1.667975 15.72547,9.924457 15.72547,19.682132 v 28.02202 c 15.96134,6.0047 30.58601,15.01179 43.16639,26.43743 L 286.602,130.52068 c 7.86273,-4.83712 18.00566,-3.00235 23.82408,4.42015 12.73763,16.17939 26.10431,34.69394 33.10212,54.87646 3.14511,9.09047 0.0783,19.34854 -7.86277,24.26907 l -26.49738,14.011 c 3.06645,17.51378 3.06645,35.44453 0,52.95829 z m -92.46575,17.59717 c 46.54739,-64.21713 -22.56604,-137.52474 -83.10908,-88.15261 -46.547392,64.21713 22.56605,137.52473 83.10908,88.15261 z m 191.37896,152.36973 -6.44748,11.92603 c -2.35887,4.42015 -7.39095,6.25492 -11.87274,4.50354 -9.27799,-3.66955 -17.76977,-8.92368 -25.23939,-15.51219 -3.61685,-3.16916 -4.56031,-8.75688 -2.20157,-13.09362 l 6.44749,-11.92605 c -5.42526,-6.6719 -9.67118,-14.42799 -12.50175,-22.85128 h -12.97348 c -4.71767,0 -8.80633,-3.58615 -9.59261,-8.59009 -1.57255,-10.00786 -1.65115,-20.51611 0,-30.94097 0.78628,-5.00393 4.87494,-8.67349 9.59261,-8.67349 h 12.97348 c 2.83057,-8.42327 7.07649,-16.17936 12.50175,-22.85128 l -6.44749,-11.92604 c -2.35874,-4.33674 -1.49387,-9.92447 2.20157,-13.09362 7.46962,-6.58852 16.04,-11.84264 25.23939,-15.51219 4.48179,-1.75138 9.51387,0.0833 11.87274,4.50354 l 6.44748,11.92603 c 8.25587,-1.58457 16.66896,-1.58457 24.92482,0 l 6.44739,-11.92603 c 2.35887,-4.42014 7.39105,-6.25492 11.87275,-4.50354 9.27809,3.66955 17.76982,8.92367 25.23944,15.51219 3.61677,3.16915 4.56035,8.75688 2.20156,13.09362 l -6.44748,11.92604 c 5.42526,6.67192 9.67118,14.42801 12.50179,22.85128 h 12.97352 c 4.71765,0 8.80617,3.58616 9.59252,8.59009 1.57252,10.00787 1.65117,20.51612 0,30.94098 -0.78635,5.00394 -4.87487,8.67348 -9.59252,8.67348 h -12.97352 c -2.83061,8.42329 -7.07653,16.17938 -12.50179,22.85128 l 6.44748,11.92605 c 2.35879,4.33674 1.49396,9.92446 -2.20156,13.09362 -7.46962,6.58851 -16.04,11.84264 -25.23944,15.51219 -4.4817,1.75138 -9.51388,-0.0833 -11.87275,-4.50354 l -6.44739,-11.92603 c -8.17721,1.58457 -16.66895,1.58457 -24.92482,0 z m -8.25586,-49.12194 c 30.27142,24.68607 64.78886,-11.92605 41.51521,-44.0346 -30.27152,-24.68606 -64.78895,11.92604 -41.51521,44.0346 z"
     id="path6511" />
</svg>
