<?xml version="1.0" encoding="utf-8"?>
<!-- Generator: Adobe Illustrator 18.0.0, SVG Export Plug-In . SVG Version: 6.00 Build 0)  -->
<!DOCTYPE svg PUBLIC "-//W3C//DTD SVG 1.1//EN" "http://www.w3.org/Graphics/SVG/1.1/DTD/svg11.dtd">
<svg version="1.1" id="Calque_1" xmlns="http://www.w3.org/2000/svg" xmlns:xlink="http://www.w3.org/1999/xlink" x="0px" y="0px"
	 viewBox="0 0 960 560" enable-background="new 0 0 960 560" xml:space="preserve">
<path fill="none" d="M492.1,69.4h-16.6v25.3h16.6c7.7,0,13.5-3.8,13.5-12.7C505.6,73.1,499.8,69.4,492.1,69.4z"/>
<polygon fill="none" points="380.6,114 404.7,114 392.9,73.6 "/>
<path fill="none" d="M251.4,137.9c8.2-2.6,13.9-10.6,13.9-22.4c0-14.4-8.5-23.3-19.7-23.3c-11.1,0-19.5,8.9-19.5,23.3
	c0,11.3,5.2,19.2,12.8,22.1l5.8-10.8L251.4,137.9z"/>
<polygon fill="#12B9E6" points="34.3,117.8 106.1,154.2 106.1,143.7 46.7,114 106.1,84.1 106.1,73.6 34.3,109.9 "/>
<path fill="#12B9E6" d="M168.3,95.4l-11.1-3.8c-6.3-2.2-12.1-5.3-12.1-12.1c0-5.8,4.8-10.8,15.2-10.8c10.1,0,18.1,3.2,26,6.5V54.7
	c-8.5-3.4-17.4-5.8-28-5.8c-21.4,0-35.4,13.5-35.4,31.3c0,16.8,9.7,25.5,24.5,30.6l9.6,3.2c8,2.7,12,5.8,12,12.1
	c0,7.5-6.3,11.8-15.4,11.8c-8.4,0-19.5-3.2-31.1-7.9v20.3c12,5.3,22.6,7,32,7c22.2,0,36.6-13.5,36.6-33.3
	C190.9,108.3,182.5,100.1,168.3,95.4z"/>
<path fill="#12B9E6" d="M245.6,73.6c-22.2,0-41.4,16.2-41.4,41.9c0,19.3,10.8,33.3,25.7,39l9.1-16.9c-7.6-2.9-12.8-10.7-12.8-22.1
	c0-14.4,8.4-23.3,19.5-23.3c11.1,0,19.7,8.9,19.7,23.3c0,11.7-5.7,19.8-13.9,22.4l10,16.6c14.8-5.7,25.7-19.6,25.7-39
	C287.1,89.7,267.8,73.6,245.6,73.6z"/>
<path fill="#12B9E6" d="M325.1,130.9V44.6h-21.2v88.2c0,13,4.8,24.6,22.1,24.6c4.4,0,11.3-0.9,15-1.9v-17.1c-2.9,0.3-6,0.5-8.4,0.5
	C327.6,139,325.1,136.4,325.1,130.9z"/>
<path fill="#12B9E6" d="M381,50.6l-34,105.2h21l7-23.4H410l6.8,23.4h22.2l-33-105.2H381z M380.6,114l12.3-40.4l11.8,40.4H380.6z"/>
<path fill="#12B9E6" d="M526.6,82c0-19.3-13.7-31.5-33.5-31.5h-39.5v105.2h21.9v-42.2h9.6l21.4,42.2h23.8l-23.9-44.8
	C517.7,106.5,526.6,96.2,526.6,82z M492.1,94.7h-16.6V69.4h16.6c7.7,0,13.5,3.8,13.5,12.7C505.6,90.9,499.8,94.7,492.1,94.7z"/>
<polygon fill="#12B9E6" points="545.6,73.6 545.6,84.1 604.9,114 545.6,143.7 545.6,154.2 617.4,117.8 617.4,109.9 "/>
<g>
	<path fill="#1D1D1B" d="M45.6,216.5c-5.9,0-10-4.6-10-11.3c0-6.7,4.1-11.3,10-11.3c5.9,0,10,4.7,10,11.3
		C55.6,211.9,51.5,216.5,45.6,216.5z M45.6,196.1c-4.6,0-7.7,3.6-7.7,9.1s3.1,9.1,7.7,9.1s7.7-3.6,7.7-9.1S50.2,196.1,45.6,196.1z"
		/>
	<path fill="#1D1D1B" d="M63,222h-2.1v-22.6h2v2.9c1.5-2.1,3.5-3.2,6.1-3.2c4.6,0,7.6,3.5,7.6,8.7c0,5.2-3.2,8.7-7.7,8.7
		c-2.7,0-4.9-1.5-5.8-2.9V222z M68.6,214.5c3.1,0,5.7-2.2,5.7-6.7s-2.6-6.7-5.7-6.7c-3.1,0-5.7,2.2-5.7,6.7S65.6,214.5,68.6,214.5z"
		/>
	<path fill="#1D1D1B" d="M82.2,208.2c0.1,4.2,2.8,6.3,6.9,6.3c1.7,0,3.2-0.2,4.7-0.7v2c-1.5,0.4-3.2,0.7-4.8,0.7
		c-5.7,0-8.9-3.6-8.9-8.7c0-5.2,3.2-8.7,7.6-8.7c4.5,0,7,3.1,7,7.4c0,0.5,0,0.9-0.1,1.8H82.2z M82.2,206.5h10.3
		c0-3.2-1.5-5.5-4.8-5.5C84.9,201,82.6,202.9,82.2,206.5z"/>
	<path fill="#1D1D1B" d="M112.9,216.2h-2.1v-10.3c0-3.6-2-4.7-4.2-4.7c-2.7,0-4.5,2.3-4.8,3.8v11.2h-2.1v-16.7h2v2.6
		c1.1-1.6,2.9-2.9,5.3-2.9c3.9,0,6,2.5,6,6.5V216.2z"/>
	<path fill="#1D1D1B" d="M127,213.1c2.4,0.8,4.3,1.2,6.1,1.2c2.8,0,5-1.3,5-4.1c0-2.4-1.6-3.5-3.8-4.1l-1.5-0.4
		c-4-1.1-5.6-3.2-5.6-6.1c0-3.5,2.7-5.7,6.8-5.7c1.9,0,3.5,0.4,5.3,0.9v2.2c-1.5-0.5-3-1-5.2-1c-3,0-4.6,1.4-4.6,3.6
		c0,2.3,1.7,3.4,3.9,4l1.8,0.5c3.6,1,5.1,3,5.1,6c0,3.9-2.7,6.4-7.2,6.4c-1.9,0-4.1-0.4-6.2-1.1V213.1z"/>
	<path fill="#1D1D1B" d="M152.3,216.5c-4.8,0-8.2-3.6-8.2-8.7c0-5.1,3.4-8.7,8.2-8.7c4.8,0,8.3,3.6,8.3,8.7
		C160.5,212.9,157.1,216.5,152.3,216.5z M152.3,201.1c-3.3,0-6.1,2.5-6.1,6.7c0,4.2,2.7,6.7,6.1,6.7c3.3,0,6.1-2.5,6.1-6.7
		C158.4,203.6,155.6,201.1,152.3,201.1z"/>
	<path fill="#1D1D1B" d="M165.5,193h2.1v19.3c0,1.6,0.9,2.1,2.2,2.1c0.4,0,0.9,0,1.4-0.1v1.9c-0.7,0.2-1.4,0.3-2,0.3
		c-2.3,0-3.8-1.2-3.8-4V193z"/>
	<path fill="#1D1D1B" d="M175.4,199.4h2.1v10.5c0,3.4,2,4.5,4.1,4.5c2.8,0,4.3-2.3,4.7-3.8v-11.2h2.1v16.7h-2v-2.6
		c-1.1,1.6-2.7,2.9-5.2,2.9c-3.3,0-5.9-2.2-5.9-6.2V199.4z"/>
	<path fill="#1D1D1B" d="M196.4,199.4v-4.3l2.1-0.9v5.2h7v1.8h-7v9.5c0,3.1,1.9,3.8,3.8,3.8c1.3,0,2.4-0.2,3.6-0.5v2
		c-1.1,0.3-2.5,0.6-3.8,0.6c-3.1,0-5.7-1.5-5.7-5.5v-9.8h-3.8v-1.8H196.4z"/>
	<path fill="#1D1D1B" d="M209.4,199.4h5.7v15h3.7v1.8h-9.6v-1.8h3.9v-13.2h-3.7V199.4z M214,191.8c0,0,0.1,0,0.1,0l2.1,2.1
		c0,0,0,0.1,0,0.1l-2.1,2c0,0-0.1,0-0.1,0l-2.1-2c0,0,0-0.1,0-0.1L214,191.8z"/>
	<path fill="#1D1D1B" d="M229.7,216.5c-4.8,0-8.2-3.6-8.2-8.7c0-5.1,3.4-8.7,8.2-8.7c4.8,0,8.3,3.6,8.3,8.7
		C238,212.9,234.6,216.5,229.7,216.5z M229.7,201.1c-3.3,0-6.1,2.5-6.1,6.7c0,4.2,2.7,6.7,6.1,6.7c3.3,0,6.1-2.5,6.1-6.7
		C235.8,203.6,233.1,201.1,229.7,201.1z"/>
	<path fill="#1D1D1B" d="M256.3,216.2h-2.1v-10.3c0-3.6-2-4.7-4.2-4.7c-2.7,0-4.5,2.3-4.8,3.8v11.2H243v-16.7h2v2.6
		c1.1-1.6,2.9-2.9,5.3-2.9c3.9,0,6,2.5,6,6.5V216.2z"/>
	<path fill="#1D1D1B" d="M275.4,202v14.2h-2.1V202h-3.1v-1.8h3.1v-1.1c0-4.3,2.5-6.4,6.2-6.4c1,0,2.1,0.1,3.1,0.4v1.8
		c-1.1-0.3-2.1-0.4-2.9-0.4c-2.3,0-4.3,0.8-4.3,4.5v1.2h6.9v1.8H275.4z"/>
	<path fill="#1D1D1B" d="M292,216.5c-4.8,0-8.2-3.6-8.2-8.7c0-5.1,3.4-8.7,8.2-8.7c4.8,0,8.3,3.6,8.3,8.7
		C300.2,212.9,296.8,216.5,292,216.5z M292,201.1c-3.3,0-6.1,2.5-6.1,6.7c0,4.2,2.7,6.7,6.1,6.7c3.3,0,6.1-2.5,6.1-6.7
		C298.1,203.6,295.3,201.1,292,201.1z"/>
	<path fill="#1D1D1B" d="M314.6,201.3c-0.6-0.1-1.1-0.1-1.6-0.1c-3.2,0-4.6,1.9-5.7,4.2v10.8h-2.1v-16.7h2v3.4
		c1.1-2,2.8-3.7,5.6-3.7c0.5,0,1.1,0,1.8,0.1V201.3z"/>
	<path fill="#1D1D1B" d="M341.9,216.2h-2.4l-2-5.8h-8.9l-2,5.8h-2.3l7.7-21.9h2.3L341.9,216.2z M329.2,208.3h7.5l-3.7-11.1
		L329.2,208.3z"/>
	<path fill="#1D1D1B" d="M345.4,199.4h2.1v10.5c0,3.4,2,4.5,4.1,4.5c2.8,0,4.3-2.3,4.7-3.8v-11.2h2.1v16.7h-2v-2.6
		c-1.1,1.6-2.7,2.9-5.2,2.9c-3.3,0-5.9-2.2-5.9-6.2V199.4z"/>
	<path fill="#1D1D1B" d="M371,210.6c-1.2,0-2.3-0.2-3.2-0.7c-0.4,0.5-0.6,1.1-0.6,1.6c0,1.1,0.7,1.7,2,1.7h5.3
		c2.7,0,4.8,1.2,4.8,3.7c0,3.3-3.2,5.5-8.3,5.5c-4.8,0-7.9-1.8-7.9-5c0-2,1.5-3.1,3.2-3.6c-0.5-0.5-1-1.1-1-2c0-0.9,0.5-1.8,1.4-2.6
		c-1.2-1-2-2.5-2-4.4c0-3.5,2.6-5.8,6.2-5.8c0.8,0,1.6,0.1,2.3,0.4h6v1.7l-3.8-0.4c1.1,1,1.7,2.5,1.7,4.2
		C377.2,208.4,374.6,210.6,371,210.6z M374,215.1h-5.7c-1.7,0-3,0.7-3,2.3c0,2.3,2.7,3.2,6,3.2c4,0,6.2-1.5,6.2-3.5
		C377.4,215.3,375.6,215.1,374,215.1z M371.1,200.9c-2.4,0-4.2,1.4-4.2,4c0,2.6,1.8,3.9,4.2,3.9c2.4,0,4.1-1.4,4.1-3.9
		C375.2,202.3,373.5,200.9,371.1,200.9z"/>
	<path fill="#1D1D1B" d="M404.2,216.2H402v-11.1c0-3-1.5-4-3.2-4c-2.1,0-3.2,1.8-3.6,3.2v11.8h-2.1v-11.1c0-3-1.5-4-3.2-4
		c-2.1,0-3.2,1.8-3.6,3.2v11.8h-2.1v-16.7h2v2.1c0.9-1.4,2.1-2.5,4.1-2.5c2.1,0,3.5,1,4.3,2.7c1-1.7,2.3-2.7,4.5-2.7
		c2.1,0,5,1.3,5,5.7V216.2z"/>
	<path fill="#1D1D1B" d="M411.3,208.2c0.1,4.2,2.8,6.3,6.9,6.3c1.7,0,3.2-0.2,4.7-0.7v2c-1.5,0.4-3.2,0.7-4.8,0.7
		c-5.7,0-8.9-3.6-8.9-8.7c0-5.2,3.2-8.7,7.6-8.7c4.5,0,7,3.1,7,7.4c0,0.5,0,0.9-0.1,1.8H411.3z M411.4,206.5h10.3
		c0-3.2-1.5-5.5-4.8-5.5C414,201,411.8,202.9,411.4,206.5z"/>
	<path fill="#1D1D1B" d="M442,216.2h-2.1v-10.3c0-3.6-2-4.7-4.2-4.7c-2.7,0-4.5,2.3-4.8,3.8v11.2h-2.1v-16.7h2v2.6
		c1.1-1.6,2.9-2.9,5.3-2.9c3.9,0,6,2.5,6,6.5V216.2z"/>
	<path fill="#1D1D1B" d="M449.6,199.4v-4.3l2.1-0.9v5.2h7v1.8h-7v9.5c0,3.1,1.9,3.8,3.8,3.8c1.3,0,2.4-0.2,3.6-0.5v2
		c-1.1,0.3-2.5,0.6-3.8,0.6c-3.1,0-5.7-1.5-5.7-5.5v-9.8h-3.8v-1.8H449.6z"/>
	<path fill="#1D1D1B" d="M463.8,208.2c0.1,4.2,2.8,6.3,6.9,6.3c1.7,0,3.2-0.2,4.7-0.7v2c-1.5,0.4-3.2,0.7-4.8,0.7
		c-5.7,0-8.9-3.6-8.9-8.7c0-5.2,3.2-8.7,7.6-8.7c4.5,0,7,3.1,7,7.4c0,0.5,0,0.9-0.1,1.8H463.8z M463.8,206.5h10.3
		c0-3.2-1.5-5.5-4.8-5.5C466.5,201,464.3,202.9,463.8,206.5z"/>
	<path fill="#1D1D1B" d="M493.4,213.4c-1,1.5-3.2,3.1-6,3.1c-4.4,0-7.7-3.4-7.7-8.7c0-5.2,3.2-8.7,7.8-8.7c2.1,0,4.3,0.9,5.7,2.8
		V193h2.1v23.1h-2V213.4z M487.6,201.1c-3.1,0-5.7,2.2-5.7,6.7s2.6,6.7,5.7,6.7c3.1,0,5.7-2.2,5.7-6.7S490.6,201.1,487.6,201.1z"/>
	<path fill="#1D1D1B" d="M525,200.3c0,2.8-1.7,5-4.4,5.8l5.3,10.1h-2.6l-5.1-9.8h-4.6v9.8h-2.3v-21.9h7.3
		C522.4,194.3,525,196.5,525,200.3z M513.5,196.4v7.9h4.7c2.3,0,4.4-1.2,4.4-4c0-2.8-2.1-3.8-4-3.8H513.5z"/>
	<path fill="#1D1D1B" d="M531.1,208.2c0.1,4.2,2.8,6.3,6.9,6.3c1.7,0,3.2-0.2,4.7-0.7v2c-1.5,0.4-3.2,0.7-4.8,0.7
		c-5.7,0-8.9-3.6-8.9-8.7c0-5.2,3.2-8.7,7.6-8.7c4.5,0,7,3.1,7,7.4c0,0.5,0,0.9-0.1,1.8H531.1z M531.2,206.5h10.3
		c0-3.2-1.5-5.5-4.8-5.5C533.9,201,531.6,202.9,531.2,206.5z"/>
	<path fill="#1D1D1B" d="M560,213c0,1.1,0.6,1.4,1.2,1.4c0.2,0,0.7,0,1-0.1v1.8c-0.4,0.1-0.9,0.2-1.4,0.2c-1.5,0-2.6-0.9-2.8-2.6
		c-1.3,1.7-3.1,2.7-5.4,2.7c-2.9,0-5.4-1.6-5.4-4.9c0-3,2.3-4.5,5.8-4.8l4.9-0.5v-1.9c0-2.5-1.4-3.4-3.8-3.4c-1.6,0-3.5,0.5-5.7,1.4
		v-2c1.9-0.9,4-1.4,5.9-1.4c4.4,0,5.7,2.4,5.7,5.3V213z M553.9,208.5c-2.2,0.2-4.5,0.7-4.5,3.1c0,2.1,1.7,3.1,3.4,3.1
		c3,0,5.1-2.1,5.1-5.6v-0.9L553.9,208.5z"/>
	<path fill="#1D1D1B" d="M566.7,193h2.1v19.3c0,1.6,0.9,2.1,2.2,2.1c0.4,0,0.9,0,1.4-0.1v1.9c-0.7,0.2-1.4,0.3-2,0.3
		c-2.3,0-3.8-1.2-3.8-4V193z"/>
	<path fill="#1D1D1B" d="M576,199.4h5.7v15h3.7v1.8h-9.6v-1.8h3.9v-13.2H576V199.4z M580.6,191.8c0,0,0.1,0,0.1,0l2.1,2.1
		c0,0,0,0.1,0,0.1l-2.1,2c0,0-0.1,0-0.1,0l-2.1-2c0,0,0-0.1,0-0.1L580.6,191.8z"/>
	<path fill="#1D1D1B" d="M591.4,199.4v-4.3l2.1-0.9v5.2h7v1.8h-7v9.5c0,3.1,1.9,3.8,3.8,3.8c1.3,0,2.4-0.2,3.6-0.5v2
		c-1.1,0.3-2.5,0.6-3.8,0.6c-3.1,0-5.7-1.5-5.7-5.5v-9.8h-3.8v-1.8H591.4z"/>
	<path fill="#1D1D1B" d="M605.6,199.4l4.9,13.9l5.7-13.9h2.2l-7.2,17.4c-1.5,3.5-3.5,5.2-6.8,5.2h-0.7v-2h0.5c2.8,0,3.9-1.3,5.1-4.1
		l-6-16.5H605.6z"/>
</g>
</svg>
